<svg width="75px" height="75px" viewBox="0 0 75 75" xmlns="http://www.w3.org/2000/svg" fill="#000000" stroke="#FFFFFF"><path d="M55.144 4.688H19.856A44.417 44.417 0 0 1 0 0v14.063A4.688 4.688 0 0 0 4.688 18.75h4.688v9.375H2.344A2.342 2.342 0 0 0 0 30.469v4.688A2.342 2.342 0 0 0 2.344 37.5h7.031v35.157A2.342 2.342 0 0 0 11.719 75h4.688a2.342 2.342 0 0 0 2.343 -2.343V37.5h37.5v35.157A2.342 2.342 0 0 0 58.594 75h4.688a2.342 2.342 0 0 0 2.344 -2.344V37.5h7.032A2.342 2.342 0 0 0 75 35.157v-4.688a2.342 2.342 0 0 0 -2.344 -2.344H65.625V18.75h4.688A4.688 4.688 0 0 0 75 14.063V0a44.417 44.417 0 0 1 -19.857 4.688M18.75 18.75h14.063v9.375H18.75zm37.5 9.375H42.188V18.75H56.25z" /></svg>
